Coordinates
version=1
nRows=4
nColumns=60
inDegrees=yes

Units are S.I. units (second, meters, Newtons, ...)
If the header above contains a line with 'inDegrees', this indicates whether rotational values are in degrees (yes) or radians (no).

endheader
time	pelvis_tilt	pelvis_list	pelvis_rotation	pelvis_tx	pelvis_ty	pelvis_tz	hip_flexion_r	hip_adduction_r	hip_rotation_r	knee_angle_r_beta	knee_angle_r	ankle_angle_r	subtalar_angle_r	mtp_angle_r	hip_flexion_l	hip_adduction_l	hip_rotation_l	knee_angle_l_beta	knee_angle_l	ankle_angle_l	subtalar_angle_l	mtp_angle_l	L5_S1_Flex_Ext	L5_S1_Lat_Bending	L5_S1_axial_rotation	L4_L5_Flex_Ext	L4_L5_Lat_Bending	L4_L5_axial_rotation	L3_L4_Flex_Ext	L3_L4_Lat_Bending	L3_L4_axial_rotation	L2_L3_Flex_Ext	L2_L3_Lat_Bending	L2_L3_axial_rotation	L1_L2_Flex_Ext	L1_L2_Lat_Bending	L1_L2_axial_rotation	L1_T12_Flex_Ext	L1_T12_Lat_Bending	L1_T12_axial_rotation	Abs_r3	Abs_r2	Abs_r1	Abs_t1	Abs_t2	arm_flex_r	arm_add_r	arm_rot_r	elbow_flex_r	pro_sup_r	wrist_flex_r	wrist_dev_r	arm_flex_l	arm_add_l	arm_rot_l	elbow_flex_l	pro_sup_l	wrist_flex_l	wrist_dev_l
     51.55000000	      0.08536151	      7.00990703	     89.00065396	      0.39813541	      0.94130213	      0.29957517	      4.57440011	     -5.37448159	      2.06273214	      0.26463718	    -15.16259342	      5.45757176	      0.00000000	      0.00000000	      3.27037884	     -5.18931441	     -4.79195520	      0.22677818	    -12.99343254	      6.75610038	      0.00000000	      0.00000000	     -6.47196537	     -0.02759733	      0.02905091	    -12.01908690	     -0.03670445	      0.03086659	    -10.63279191	     -0.06710015	      0.03086659	     -7.39680923	     -0.06710015	      0.02541955	     -6.00986705	     -0.05627648	      0.02360387	     -3.69808101	     -0.04274827	      0.02178818	    -46.22860147	     -0.31218655	      0.16157245	      0.00000000	      0.00000000	     72.94204934	    -22.60264281	     27.99651107	     48.31464387	     58.33707019	     -0.22175152	     22.73980965	     72.89112476	    -20.60083468	     34.63489356	     45.26182221	     48.21213065	      2.71849167	     13.19966350
     51.56000000	      0.02316311	      6.81630474	     89.02784781	      0.39781933	      0.94117426	      0.29968768	      4.78208497	     -5.44722357	      2.20811930	      0.26441801	    -15.15003584	      5.35213038	      0.00000000	      0.00000000	      3.52502345	     -5.10251971	     -4.61958211	      0.22787284	    -13.05615198	      6.60425323	      0.00000000	      0.00000000	     -6.46446054	     -0.03464292	      0.02480199	    -12.00514966	     -0.04607508	      0.02635211	    -10.62046222	     -0.08423080	      0.02635211	     -7.38823195	     -0.08423080	      0.02170174	     -6.00289806	     -0.07064384	      0.02015162	     -3.69379275	     -0.05366188	      0.01860149	    -46.17499517	     -0.39188764	      0.13794122	      0.00000000	      0.00000000	     73.98675002	    -22.37438212	     29.42528421	     46.20152513	     56.76486106	      1.21118125	     18.82151126	     73.58122587	    -20.36991727	     35.64950095	     44.17236749	     47.43438471	      3.51219497	     10.61626678
     51.57000000	     -0.03297849	      6.59123032	     89.06913593	      0.39757835	      0.94105064	      0.29957986	      4.99105806	     -5.51360191	      2.25861503	      0.26369799	    -15.10878190	      5.32092147	      0.00000000	      0.00000000	      3.77873836	     -5.03478536	     -4.50581209	      0.22803026	    -13.06517154	      6.53286611	      0.00000000	      0.00000000	     -6.47358150	     -0.03703198	      0.05496461	    -12.02208820	     -0.04925254	      0.05839990	    -10.63544704	     -0.09003957	      0.05839990	     -7.39865629	     -0.09003957	      0.04809403	     -6.01136778	     -0.07551562	      0.04465875	     -3.69900447	     -0.05736254	      0.04122346	    -46.24014528	     -0.41891321	      0.30569667	      0.00000000	      0.00000000	     74.46905574	    -22.44935827	     29.43323440	     45.54097117	     56.73088468	      1.19775156	     18.84178755	     74.04318783	    -20.05933931	     35.74440635	     44.12938722	     47.44537940	      3.48832988	     10.62529477
     51.58000000	     -0.05827145	      6.29212001	     89.12181774	      0.39729631	      0.94074386	      0.29946218	      5.30358274	     -5.53974521	      2.37468466	      0.26391937	    -15.12146594	      5.28938608	      0.00000000	      0.00000000	      4.11838930	     -4.99433893	     -4.41775733	      0.22821981	    -13.07603219	      6.47668511	      0.00000000	      0.00000000	     -6.45331935	     -0.03351066	      0.05862497	    -11.98445936	     -0.04456918	      0.06228903	    -10.60215835	     -0.08147782	      0.06228903	     -7.37549868	     -0.08147782	      0.05129685	     -5.99255235	     -0.06833494	      0.04763279	     -3.68742667	     -0.05190801	      0.04396873	    -46.09541476	     -0.37907929	      0.32605450	      0.00000000	      0.00000000	     75.18057645	    -22.13839339	     29.80932476	     44.13531779	     56.59182439	      1.19907748	     18.89749793	     74.60131418	    -19.78011670	     36.21235336	     43.52223931	     47.51468937	      3.36474349	     10.70062094
